{
  "asset": {
    "generator": "Khronos glTF Blender I/O v1.6.16",
    "version": "2.0"
  },
  "scene": 0,
  "scenes": [
    {
      "name": "Scene",
      "nodes": [
        0
      ]
    }
  ],
  "nodes": [
    {
      "mesh": 0,
      "name": "ceramic_vase_03"
    }
  ],
  "materials": [
    {
      "name": "ceramic_vase_03",
      "normalTexture": {
        "index": 0
      },
      "pbrMetallicRoughness": {
        "baseColorTexture": {
          "index": 1
        },
        "metallicFactor": 0,
        "metallicRoughnessTexture": {
          "index": 2
        }
      }
    }
  ],
  "meshes": [
    {
      "name": "Cube.001",
      "primitives": [
        {
          "attributes": {
            "POSITION": 0,
            "NORMAL": 1,
            "TEXCOORD_0": 2
          },
          "indices": 3,
          "material": 0
        }
      ]
    }
  ],
  "textures": [
    {
      "sampler": 0,
      "source": 0
    },
    {
      "sampler": 0,
      "source": 1
    },
    {
      "sampler": 0,
      "source": 2
    }
  ],
  "images": [
    {
      "mimeType": "image/jpeg",
      "name": "ceramic_vase_03_nor_gl",
      "uri": "textures/ceramic_vase_03_nor_gl_4k.jpg"
    },
    {
      "mimeType": "image/jpeg",
      "name": "ceramic_vase_03_diff",
      "uri": "textures/ceramic_vase_03_diff_4k.jpg"
    },
    {
      "mimeType": "image/jpeg",
      "name": "ceramic_vase_03_rough",
      "uri": "textures/ceramic_vase_03_rough_4k.jpg"
    }
  ],
  "accessors": [
    {
      "bufferView": 0,
      "componentType": 5126,
      "count": 7263,
      "max": [
        0.05611971765756607,
        0.41439637541770935,
        0.056119803339242935
      ],
      "min": [
        -0.056120797991752625,
        0.00002455843787174672,
        -0.056119807064533234
      ],
      "type": "VEC3"
    },
    {
      "bufferView": 1,
      "componentType": 5126,
      "count": 7263,
      "type": "VEC3"
    },
    {
      "bufferView": 2,
      "componentType": 5126,
      "count": 7263,
      "type": "VEC2"
    },
    {
      "bufferView": 3,
      "componentType": 5123,
      "count": 33408,
      "type": "SCALAR"
    }
  ],
  "bufferViews": [
    {
      "buffer": 0,
      "byteLength": 87156,
      "byteOffset": 0
    },
    {
      "buffer": 0,
      "byteLength": 87156,
      "byteOffset": 87156
    },
    {
      "buffer": 0,
      "byteLength": 58104,
      "byteOffset": 174312
    },
    {
      "buffer": 0,
      "byteLength": 66816,
      "byteOffset": 232416
    }
  ],
  "samplers": [
    {
      "magFilter": 9729,
      "minFilter": 9987
    }
  ],
  "buffers": [
    {
      "byteLength": 299232,
      "uri": "ceramic_vase_03.bin"
    }
  ]
}