{
    "asset": {
        "version": "2.0",
        "generator": "Open Asset Import Library (assimp v5.0.5eb040c7)"
    },
    "accessors": [
        {
            "bufferView": 0,
            "byteOffset": 0,
            "componentType": 5126,
            "count": 16995,
            "type": "VEC3",
            "max": [
                129.93470764160157,
                83.25506591796875,
                -26.8489990234375
            ],
            "min": [
                -130.0653076171875,
                -2.7449169158935549,
                -37.849002838134769
            ]
        },
        {
            "bufferView": 1,
            "byteOffset": 0,
            "componentType": 5125,
            "count": 102120,
            "type": "SCALAR",
            "max": [
                16994
            ],
            "min": [
                0
            ]
        },
        {
            "bufferView": 2,
            "byteOffset": 0,
            "componentType": 5126,
            "count": 37288,
            "type": "VEC3",
            "max": [
                131.7206573486328,
                84.43089294433594,
                41.057064056396487
            ],
            "min": [
                -131.98182678222657,
                -5.52482795715332,
                -27.808334350585939
            ]
        },
        {
            "bufferView": 3,
            "byteOffset": 0,
            "componentType": 5125,
            "count": 234240,
            "type": "SCALAR",
            "max": [
                37287
            ],
            "min": [
                0
            ]
        }
    ],
    "buffers": [
        {
            "byteLength": 1996836,
            "uri": "result.bin"
        }
    ],
    "bufferViews": [
        {
            "buffer": 0,
            "byteOffset": 0,
            "byteLength": 203940,
            "target": 34962
        },
        {
            "buffer": 0,
            "byteOffset": 203940,
            "byteLength": 408480,
            "target": 34963
        },
        {
            "buffer": 0,
            "byteOffset": 612420,
            "byteLength": 447456,
            "target": 34962
        },
        {
            "buffer": 0,
            "byteOffset": 1059876,
            "byteLength": 936960,
            "target": 34963
        }
    ],
    "images": [
        {
            "uri": "..\\Downloads\\C10-FI~1.fbm\\brushed_metal_26_94_diffuse_edit.jpg"
        },
        {
            "uri": "C10-FI~1.fbm\\TexturesCom_Fabric_Cotton_1K_albedo.tif"
        }
    ],
    "materials": [
        {
            "name": "metal",
            "pbrMetallicRoughness": {
                "baseColorTexture": {
                    "index": 0
                },
                "baseColorFactor": [
                    0.0117647061124444,
                    0.0117647061124444,
                    0.0117647061124444,
                    1.0
                ],
                "metallicFactor": 0.0,
                "roughnessFactor": 0.91019606590271
            }
        },
        {
            "name": "TexturesCom_Fabric_Cotton_1K__1K_roughness",
            "pbrMetallicRoughness": {
                "baseColorTexture": {
                    "index": 1
                },
                "baseColorFactor": [
                    0.062745101749897,
                    0.062745101749897,
                    0.062745101749897,
                    1.0
                ],
                "metallicFactor": 0.0,
                "roughnessFactor": 0.8585786819458008
            }
        }
    ],
    "meshes": [
        {
            "name": "Object_1",
            "primitives": [
                {
                    "mode": 4,
                    "material": 0,
                    "indices": 1,
                    "attributes": {
                        "POSITION": 0
                    }
                }
            ]
        },
        {
            "name": "Object_1_2",
            "primitives": [
                {
                    "mode": 4,
                    "material": 1,
                    "indices": 3,
                    "attributes": {
                        "POSITION": 2
                    }
                }
            ]
        }
    ],
    "nodes": [
        {
            "name": "RootNode",
            "children": [
                1,
                4,
                5,
                6,
                7
            ]
        },
        {
            "name": "Layer 01",
            "children": [
                2,
                3
            ]
        },
        {
            "name": "Object_1",
            "mesh": 0
        },
        {
            "name": "Object_1_2",
            "mesh": 1
        },
        {
            "name": "Perspective",
            "matrix": [
                -0.4330024719238281,
                0.7500041127204895,
                -0.5000027418136597,
                0.0,
                -0.7500041127204895,
                0.007921338081359864,
                0.661385715007782,
                0.0,
                0.5000026822090149,
                0.6613857746124268,
                0.559076189994812,
                0.0,
                176.85491943359376,
                -296.5957946777344,
                220.801513671875,
                1.0
            ]
        },
        {
            "name": "Top",
            "matrix": [
                -4.371138828673793e-8,
                0.0,
                -1.0,
                0.0,
                0.0,
                1.0,
                0.0,
                0.0,
                1.0,
                0.0,
                -4.371138828673793e-8,
                0.0,
                -0.130584716796875,
                39.453033447265628,
                71.87372589111328,
                1.0
            ]
        },
        {
            "name": "Front",
            "matrix": [
                -4.371138828673793e-8,
                1.0,
                0.0,
                0.0,
                -1.0,
                -4.371138828673793e-8,
                0.0,
                0.0,
                0.0,
                0.0,
                1.0,
                0.0,
                -0.130584716796875,
                -29.543285369873048,
                1.6040306091308594,
                1.0
            ]
        },
        {
            "name": "Right",
            "matrix": [
                1.0,
                0.0,
                0.0,
                0.0,
                0.0,
                -1.0,
                -8.742277657347586e-8,
                0.0,
                0.0,
                8.742277657347586e-8,
                -1.0,
                0.0,
                165.97108459472657,
                39.453033447265628,
                1.6040306091308594,
                1.0
            ]
        }
    ],
    "samplers": [
        {},
        {}
    ],
    "scenes": [
        {
            "nodes": [
                0
            ]
        }
    ],
    "textures": [
        {
            "source": 0,
            "sampler": 0
        },
        {
            "source": 1,
            "sampler": 1
        }
    ],
    "scene": 0
}