{
  "asset": {
    "generator": "Khronos glTF Blender I/O v1.6.16",
    "version": "2.0"
  },
  "scene": 0,
  "scenes": [
    {
      "name": "Scene",
      "nodes": [
        0
      ]
    }
  ],
  "nodes": [
    {
      "mesh": 0,
      "name": "Chandelier_01",
      "rotation": [
        0.7071068286895752,
        0,
        0,
        0.7071067094802856
      ],
      "scale": [
        0.009999999776482582,
        0.009999999776482582,
        0.009999999776482582
      ]
    }
  ],
  "materials": [
    {
      "doubleSided": true,
      "name": "basecolor_classic_chandelier_1",
      "normalTexture": {
        "index": 0
      },
      "pbrMetallicRoughness": {
        "baseColorTexture": {
          "index": 1
        },
        "metallicRoughnessTexture": {
          "index": 2
        }
      }
    },
    {
      "doubleSided": true,
      "name": "lamps_classic_chandelier_1",
      "pbrMetallicRoughness": {
        "baseColorFactor": [
          0.800000011920929,
          0.800000011920929,
          0.800000011920929,
          1
        ],
        "metallicFactor": 0,
        "roughnessFactor": 0.3227272629737854
      }
    }
  ],
  "meshes": [
    {
      "name": "Line008.000",
      "primitives": [
        {
          "attributes": {
            "POSITION": 0,
            "NORMAL": 1,
            "TEXCOORD_0": 2
          },
          "indices": 3,
          "material": 0
        },
        {
          "attributes": {
            "POSITION": 4,
            "NORMAL": 5,
            "TEXCOORD_0": 6
          },
          "indices": 7,
          "material": 1
        }
      ]
    }
  ],
  "textures": [
    {
      "sampler": 0,
      "source": 0
    },
    {
      "sampler": 0,
      "source": 1
    },
    {
      "sampler": 0,
      "source": 2
    }
  ],
  "images": [
    {
      "mimeType": "image/jpeg",
      "name": "Chandelier_01_nor_gl",
      "uri": "textures/Chandelier_01_nor_gl_4k.jpg"
    },
    {
      "mimeType": "image/jpeg",
      "name": "Chandelier_01_diff",
      "uri": "textures/Chandelier_01_diff_4k.jpg"
    },
    {
      "mimeType": "image/jpeg",
      "name": "Chandelier_01_metallic-Chandelier_01_roughness",
      "uri": "textures/Chandelier_01_arm_4k.jpg"
    }
  ],
  "accessors": [
    {
      "bufferView": 0,
      "componentType": 5126,
      "count": 22554,
      "max": [
        37.34918975830078,
        41.33259963989258,
        79.82707977294922
      ],
      "min": [
        -37.296382904052734,
        -40.22236633300781,
        -0.0000057220458984375
      ],
      "type": "VEC3"
    },
    {
      "bufferView": 1,
      "componentType": 5126,
      "count": 22554,
      "type": "VEC3"
    },
    {
      "bufferView": 2,
      "componentType": 5126,
      "count": 22554,
      "type": "VEC2"
    },
    {
      "bufferView": 3,
      "componentType": 5123,
      "count": 79032,
      "type": "SCALAR"
    },
    {
      "bufferView": 4,
      "componentType": 5126,
      "count": 288,
      "max": [
        28.875572204589844,
        32.95063781738281,
        48.515506744384766
      ],
      "min": [
        -28.826671600341797,
        -31.86379623413086,
        41.13002014160156
      ],
      "type": "VEC3"
    },
    {
      "bufferView": 5,
      "componentType": 5126,
      "count": 288,
      "type": "VEC3"
    },
    {
      "bufferView": 6,
      "componentType": 5126,
      "count": 288,
      "type": "VEC2"
    },
    {
      "bufferView": 7,
      "componentType": 5123,
      "count": 1548,
      "type": "SCALAR"
    }
  ],
  "bufferViews": [
    {
      "buffer": 0,
      "byteLength": 270648,
      "byteOffset": 0
    },
    {
      "buffer": 0,
      "byteLength": 270648,
      "byteOffset": 270648
    },
    {
      "buffer": 0,
      "byteLength": 180432,
      "byteOffset": 541296
    },
    {
      "buffer": 0,
      "byteLength": 158064,
      "byteOffset": 721728
    },
    {
      "buffer": 0,
      "byteLength": 3456,
      "byteOffset": 879792
    },
    {
      "buffer": 0,
      "byteLength": 3456,
      "byteOffset": 883248
    },
    {
      "buffer": 0,
      "byteLength": 2304,
      "byteOffset": 886704
    },
    {
      "buffer": 0,
      "byteLength": 3096,
      "byteOffset": 889008
    }
  ],
  "samplers": [
    {
      "magFilter": 9729,
      "minFilter": 9987
    }
  ],
  "buffers": [
    {
      "byteLength": 892104,
      "uri": "Chandelier_01.bin"
    }
  ]
}