{
  "asset": {
    "generator": "Khronos glTF Blender I/O v1.6.16",
    "version": "2.0"
  },
  "extensionsUsed": [
    "KHR_materials_transmission"
  ],
  "scene": 0,
  "scenes": [
    {
      "name": "Scene",
      "nodes": [
        0
      ]
    }
  ],
  "nodes": [
    {
      "mesh": 0,
      "name": "Chandelier_03"
    }
  ],
  "materials": [
    {
      "doubleSided": true,
      "name": "Chandelier_03",
      "normalTexture": {
        "index": 0
      },
      "pbrMetallicRoughness": {
        "baseColorTexture": {
          "index": 1
        },
        "metallicRoughnessTexture": {
          "index": 2
        }
      }
    },
    {
      "alphaMode": "BLEND",
      "doubleSided": true,
      "extensions": {
        "KHR_materials_transmission": {
          "transmissionFactor": 0.699999988079071
        }
      },
      "name": "Chandelier_03_glass",
      "normalTexture": {
        "index": 3
      },
      "pbrMetallicRoughness": {
        "baseColorFactor": [
          0.1715972125530243,
          0.1715972125530243,
          0.1715972125530243,
          1
        ],
        "baseColorTexture": {
          "index": 4
        },
        "metallicRoughnessTexture": {
          "index": 5
        }
      }
    }
  ],
  "meshes": [
    {
      "name": "Bogate_s_Beatrix_285x18_Strotskis_cristal_A_001.000",
      "primitives": [
        {
          "attributes": {
            "POSITION": 0,
            "NORMAL": 1,
            "TEXCOORD_0": 2
          },
          "indices": 3,
          "material": 0
        },
        {
          "attributes": {
            "POSITION": 4,
            "NORMAL": 5,
            "TEXCOORD_0": 6
          },
          "indices": 7,
          "material": 1
        }
      ]
    }
  ],
  "textures": [
    {
      "sampler": 0,
      "source": 0
    },
    {
      "sampler": 0,
      "source": 1
    },
    {
      "sampler": 0,
      "source": 2
    },
    {
      "sampler": 0,
      "source": 0
    },
    {
      "sampler": 0,
      "source": 3
    },
    {
      "sampler": 0,
      "source": 2
    }
  ],
  "images": [
    {
      "mimeType": "image/jpeg",
      "name": "Chandelier_03_nor_gl",
      "uri": "textures/Chandelier_03_nor_gl_4k.jpg"
    },
    {
      "mimeType": "image/jpeg",
      "name": "Chandelier_03_diff",
      "uri": "textures/Chandelier_03_diff_4k.jpg"
    },
    {
      "mimeType": "image/jpeg",
      "name": "Chandelier_03_metallic-Chandelier_03_roughness",
      "uri": "textures/Chandelier_03_arm_4k.jpg"
    },
    {
      "mimeType": "image/jpeg",
      "name": "Chandelier_03_opacity.png",
      "uri": "textures/Chandelier_03_opacity_4k.jpg"
    }
  ],
  "accessors": [
    {
      "bufferView": 0,
      "componentType": 5126,
      "count": 16750,
      "max": [
        0.36118048429489136,
        2.620494115035399e-7,
        0.37204569578170776
      ],
      "min": [
        -0.35798943042755127,
        -1.040645718574524,
        -0.3648392856121063
      ],
      "type": "VEC3"
    },
    {
      "bufferView": 1,
      "componentType": 5126,
      "count": 16750,
      "type": "VEC3"
    },
    {
      "bufferView": 2,
      "componentType": 5126,
      "count": 16750,
      "type": "VEC2"
    },
    {
      "bufferView": 3,
      "componentType": 5123,
      "count": 74463,
      "type": "SCALAR"
    },
    {
      "bufferView": 4,
      "componentType": 5126,
      "count": 3296,
      "max": [
        0.39151731133461,
        -0.6956191062927246,
        0.39645645022392273
      ],
      "min": [
        -0.3889097571372986,
        -0.8131197690963745,
        -0.38900378346443176
      ],
      "type": "VEC3"
    },
    {
      "bufferView": 5,
      "componentType": 5126,
      "count": 3296,
      "type": "VEC3"
    },
    {
      "bufferView": 6,
      "componentType": 5126,
      "count": 3296,
      "type": "VEC2"
    },
    {
      "bufferView": 7,
      "componentType": 5123,
      "count": 13440,
      "type": "SCALAR"
    }
  ],
  "bufferViews": [
    {
      "buffer": 0,
      "byteLength": 201000,
      "byteOffset": 0
    },
    {
      "buffer": 0,
      "byteLength": 201000,
      "byteOffset": 201000
    },
    {
      "buffer": 0,
      "byteLength": 134000,
      "byteOffset": 402000
    },
    {
      "buffer": 0,
      "byteLength": 148926,
      "byteOffset": 536000
    },
    {
      "buffer": 0,
      "byteLength": 39552,
      "byteOffset": 684928
    },
    {
      "buffer": 0,
      "byteLength": 39552,
      "byteOffset": 724480
    },
    {
      "buffer": 0,
      "byteLength": 26368,
      "byteOffset": 764032
    },
    {
      "buffer": 0,
      "byteLength": 26880,
      "byteOffset": 790400
    }
  ],
  "samplers": [
    {
      "magFilter": 9729,
      "minFilter": 9987
    }
  ],
  "buffers": [
    {
      "byteLength": 817280,
      "uri": "Chandelier_03.bin"
    }
  ]
}