{
  "asset": {
    "generator": "Khronos glTF Blender I/O v1.6.16",
    "version": "2.0"
  },
  "scene": 0,
  "scenes": [
    {
      "name": "Scene",
      "nodes": [
        0
      ]
    }
  ],
  "nodes": [
    {
      "mesh": 0,
      "name": "ceramic_vase_04"
    }
  ],
  "materials": [
    {
      "doubleSided": true,
      "name": "ceramic_vase_04",
      "normalTexture": {
        "index": 0
      },
      "pbrMetallicRoughness": {
        "baseColorTexture": {
          "index": 1
        },
        "metallicFactor": 0,
        "metallicRoughnessTexture": {
          "index": 2
        }
      }
    }
  ],
  "meshes": [
    {
      "name": "Cylinder.005",
      "primitives": [
        {
          "attributes": {
            "POSITION": 0,
            "NORMAL": 1,
            "TEXCOORD_0": 2
          },
          "indices": 3,
          "material": 0
        }
      ]
    }
  ],
  "textures": [
    {
      "sampler": 0,
      "source": 0
    },
    {
      "sampler": 0,
      "source": 1
    },
    {
      "sampler": 0,
      "source": 2
    }
  ],
  "images": [
    {
      "mimeType": "image/jpeg",
      "name": "ceramic_vase_04_nor_gl",
      "uri": "textures/ceramic_vase_04_nor_gl_4k.jpg"
    },
    {
      "mimeType": "image/jpeg",
      "name": "ceramic_vase_04_diff",
      "uri": "textures/ceramic_vase_04_diff_4k.jpg"
    },
    {
      "mimeType": "image/jpeg",
      "name": "ceramic_vase_04_rough",
      "uri": "textures/ceramic_vase_04_rough_4k.jpg"
    }
  ],
  "accessors": [
    {
      "bufferView": 0,
      "componentType": 5126,
      "count": 5804,
      "max": [
        0.09056079387664795,
        0.3424701690673828,
        0.09055991470813751
      ],
      "min": [
        -0.09056074172258377,
        0.0005259597674012184,
        -0.09055996686220169
      ],
      "type": "VEC3"
    },
    {
      "bufferView": 1,
      "componentType": 5126,
      "count": 5804,
      "type": "VEC3"
    },
    {
      "bufferView": 2,
      "componentType": 5126,
      "count": 5804,
      "type": "VEC2"
    },
    {
      "bufferView": 3,
      "componentType": 5123,
      "count": 27000,
      "type": "SCALAR"
    }
  ],
  "bufferViews": [
    {
      "buffer": 0,
      "byteLength": 69648,
      "byteOffset": 0
    },
    {
      "buffer": 0,
      "byteLength": 69648,
      "byteOffset": 69648
    },
    {
      "buffer": 0,
      "byteLength": 46432,
      "byteOffset": 139296
    },
    {
      "buffer": 0,
      "byteLength": 54000,
      "byteOffset": 185728
    }
  ],
  "samplers": [
    {
      "magFilter": 9729,
      "minFilter": 9987
    }
  ],
  "buffers": [
    {
      "byteLength": 239728,
      "uri": "ceramic_vase_04.bin"
    }
  ]
}